<svg width="24" height="24" viewBox="0 0 24 24" fill="none" xmlns="http://www.w3.org/2000/svg">
<path d="M20.69 4.04982C18.66 4.72982 15.86 5.49982 12 5.49982C8.11004 5.49982 5.05004 4.65982 3.31004 4.06982C3.15996 4.01925 2.99996 4.00532 2.8434 4.02918C2.68683 4.05304 2.53825 4.114 2.41004 4.20698C2.28183 4.29995 2.17772 4.42224 2.1064 4.56364C2.03508 4.70504 1.99861 4.86145 2.00004 5.01982V18.9998C2.00004 19.6798 2.66004 20.1698 3.31004 19.9498C5.36004 19.2598 8.10004 18.4998 12 18.4998C15.87 18.4998 18.66 19.2598 20.69 19.9498C20.8401 19.999 20.9997 20.0119 21.1557 19.9874C21.3117 19.963 21.4597 19.9019 21.5875 19.8092C21.7154 19.7165 21.8194 19.5948 21.8911 19.4541C21.9628 19.3134 22.0001 19.1577 22 18.9998V4.99982C22 4.31982 21.34 3.83982 20.69 4.04982ZM12 14.9998C9.66004 14.9998 7.48004 15.1498 5.48004 15.4098L9.17004 10.9898L11.17 13.3898L14 9.99982L18.51 15.3998C16.52 15.1498 14.3 14.9998 12 14.9998Z" fill="white"/>
</svg>
